<?xml version="1.0" encoding="UTF-8" standalone="no"?>
<svg
   xmlns:dc="http://purl.org/dc/elements/1.1/"
   xmlns:cc="http://creativecommons.org/ns#"
   xmlns:rdf="http://www.w3.org/1999/02/22-rdf-syntax-ns#"
   xmlns:svg="http://www.w3.org/2000/svg"
   xmlns="http://www.w3.org/2000/svg"
   xmlns:sodipodi="http://sodipodi.sourceforge.net/DTD/sodipodi-0.dtd"
   xmlns:inkscape="http://www.inkscape.org/namespaces/inkscape"
   width="32"
   height="32"
   viewBox="0 0 32 32"
   id="svg5467"
   version="1.1"
   inkscape:version="0.91 r"
   sodipodi:docname="ic_settings.svg">
  <metadata
     id="metadata5475">
    <rdf:RDF>
      <cc:Work
         rdf:about="">
        <dc:format>image/svg+xml</dc:format>
        <dc:type
           rdf:resource="http://purl.org/dc/dcmitype/StillImage" />
        <dc:title></dc:title>
      </cc:Work>
    </rdf:RDF>
  </metadata>
  <defs
     id="defs5473" />
  <sodipodi:namedview
     pagecolor="#ffffff"
     bordercolor="#666666"
     borderopacity="1"
     objecttolerance="10"
     gridtolerance="10"
     guidetolerance="10"
     inkscape:pageopacity="0"
     inkscape:pageshadow="2"
     inkscape:window-width="1362"
     inkscape:window-height="693"
     id="namedview5471"
     showgrid="false"
     inkscape:zoom="4.9166667"
     inkscape:cx="-20.644068"
     inkscape:cy="24"
     inkscape:window-x="312"
     inkscape:window-y="1134"
     inkscape:window-maximized="0"
     inkscape:current-layer="svg5467" />
  <path
     d="m 23.4275,16.975 c 0.04,-0.32 0.07,-0.645 0.07,-0.975 0,-0.33 -0.03,-0.655 -0.07,-0.975 l 2.115,-1.655 c 0.19,-0.15 0.245,-0.42 0.12,-0.64 l -2,-3.465 C 23.5375,9.05 23.2775,8.96 23.0525,9.05 l -2.49,1.005 c -0.515,-0.395 -1.08,-0.73 -1.69,-0.985 L 18.4975,6.42 C 18.4525,6.185 18.2475,6 17.9975,6 l -4,0 c -0.25,0 -0.455,0.185 -0.495,0.42 l -0.375,2.65 c -0.61,0.255 -1.175,0.585 -1.69,0.985 L 8.9475,9.05 c -0.225,-0.085 -0.485,0 -0.61,0.215 l -2,3.465 c -0.125,0.215 -0.07,0.485 0.12,0.64 l 2.11,1.655 c -0.04,0.32 -0.07,0.645 -0.07,0.975 0,0.33 0.03,0.655 0.07,0.975 l -2.11,1.655 c -0.19,0.15 -0.245,0.42 -0.12,0.64 l 2,3.465 c 0.125,0.215 0.385,0.305 0.61,0.215 l 2.49,-1.005 c 0.515,0.395 1.08,0.73 1.69,0.985 l 0.375,2.65 c 0.04,0.235 0.245,0.42 0.495,0.42 l 4,0 c 0.25,0 0.455,-0.185 0.495,-0.42 l 0.375,-2.65 c 0.61,-0.255 1.175,-0.585 1.69,-0.985 l 2.49,1.005 c 0.225,0.085 0.485,0 0.61,-0.215 l 2,-3.465 c 0.125,-0.215 0.07,-0.485 -0.12,-0.64 l -2.11,-1.655 z m -7.43,2.525 c -1.935,0 -3.5,-1.565 -3.5,-3.5 0,-1.935 1.565,-3.5 3.5,-3.5 1.935,0 3.5,1.565 3.5,3.5 0,1.935 -1.565,3.5 -3.5,3.5 z"
     id="path5469"
     inkscape:connector-curvature="0"
     style="fill:#ffffff" />
</svg>
